<?xml version="1.0" encoding="utf-8"?>
<!-- Generator: Adobe Illustrator 19.0.1, SVG Export Plug-In . SVG Version: 6.00 Build 0)  -->
<svg version="1.1" xmlns="http://www.w3.org/2000/svg" xmlns:xlink="http://www.w3.org/1999/xlink" x="0px" y="0px"
	 viewBox="0 0 761.1 1826.2" style="enable-background:new 0 0 761.1 1826.2;" xml:space="preserve">
<style type="text/css">
	.st0{opacity:0.55;fill:#161926;}
	.st1{fill:#273058;}
	.st2{fill:#313E7D;}
	.st3{fill:#F1D232;}
	.st4{fill:#FFFFFF;}
	.st5{fill:#761F26;}
	.st6{fill:#F3D332;}
	.st7{fill:#EDBA31;}
	.st8{fill:#EBB932;}
	.st9{fill:#F3D332;stroke:#FFFFFF;stroke-width:7;stroke-linecap:round;stroke-linejoin:round;stroke-miterlimit:10;}
	.st10{fill:#F3D332;stroke:#FFFFFF;stroke-width:5;stroke-linecap:round;stroke-linejoin:round;stroke-miterlimit:10;}
	.st11{fill:none;stroke:#EBB932;stroke-width:9;stroke-linecap:round;stroke-miterlimit:10;}
	.st12{fill:none;stroke:#FFFFFF;stroke-width:9;stroke-linecap:round;stroke-miterlimit:10;}
	.st13{fill:#F3D332;stroke:#FFFFFF;stroke-width:7;stroke-miterlimit:10;}
	.st14{fill:#F0F1F2;}
	.st15{fill:none;stroke:#9E9E9E;stroke-miterlimit:10;}
	.st16{fill:#9C252A;}
	.st17{fill:#D3AA93;}
	.st18{fill:none;stroke:#D48336;stroke-linecap:round;stroke-linejoin:round;stroke-miterlimit:10;}
	.st19{fill:#1D1E1F;}
	.st20{fill:none;stroke:#272E3E;stroke-miterlimit:10;}
	.st21{fill:#9E9E9E;}
</style>
<g id="Layer_1">
</g>
<g id="Layer_2">
	<g>
		<polygon class="st4" points="211.7,360.5 121.2,586.6 95.8,668.7 76.2,716.2 54.7,756.7 36.5,829 19.4,885.7 0,1237.7 
			115.4,1433.8 146.6,1484 201.4,1573.9 283.5,1714.7 344,1814.4 418.8,1763.3 512.2,1700 597.1,1661.9 659.7,1605.2 698.5,1592.4 
			723.4,1592.4 761.1,1560.3 746.2,1515.2 726.6,1418.9 723.4,1335.4 700.8,1250 679.2,1151.1 631.7,894.3 602.3,828.5 584.2,742.2 
			535.1,592 323.4,404.6 		"/>
		<polygon class="st1" points="345.4,39.5 549.9,635.1 506,663.9 460.7,685.9 345.4,753.2 302.8,786.1 256.2,814.9 138.1,543.2 
			220.5,338.7 293.2,156.1 		"/>
		<polygon class="st6" points="515.3,657.8 542.5,717.3 556.5,750.8 595.5,814.9 619.2,862.4 630.4,888.9 640.2,929.3 652.7,965.6 
			669.5,1042.1 679.2,1131.6 679.2,1151.1 627.6,1021.4 562.1,888.9 460.7,685.9 		"/>
		<polygon class="st6" points="408.8,716.2 352.4,749.1 481.2,1006.1 602.5,1254.3 698.5,1474.7 720,1530.9 746.2,1515.2 
			746.2,1466.3 726.6,1418.9 722.5,1396.6 679.2,1294.8 616.5,1137.2 549.9,1007.5 		"/>
		<polygon class="st6" points="666.4,1572.8 625.3,1600.4 549.3,1445.9 481.4,1279.3 390.9,1087.4 279.2,870.7 256.2,814.9 
			302.8,786.1 367.9,919.2 482.7,1151.1 557.7,1300.7 		"/>
		<polygon class="st6" points="569.9,1623.6 519.3,1661.4 418.8,1445.9 344,1274.7 218,1022.2 158.3,892.1 109.3,797.2 76.2,716.2 
			106.5,634.2 121.6,670.2 256.2,961 389.4,1231.9 505.7,1481.3 		"/>
		<polygon class="st6" points="461.3,1700.6 417.7,1726.7 380.5,1649.7 344,1562.4 344,1518 282.2,1417 165.9,1198.2 138.1,1141.9 
			60.3,979.4 60.3,948.8 19.4,885.7 42.8,804.3 155.2,1022.2 195,1127.8 344,1403.2 352.4,1445.9 		"/>
		<polygon class="st6" points="380.5,1738.9 334.3,1763.3 308.8,1729.6 274,1649.7 190.4,1490.5 162.9,1420.1 110.8,1319.1 
			68,1219.6 19.4,1112.5 8.3,1087.4 19.4,925.8 43.5,974.8 54.2,1042.1 60.3,1087.4 100.1,1185.7 156.8,1316 256.2,1490.5 
			329.7,1622.1 332.7,1674.1 		"/>
		<polygon class="st8" points="746.2,1515.2 334.3,1763.3 282,1639.4 162.9,1420.1 4,1164.9 0,1237.7 344,1814.4 512.2,1700 
			597.1,1661.9 672,1601.2 726.9,1585.4 761.1,1560.3 		"/>
		<polygon class="st8" points="0,1237.7 0,1255.8 5.3,1246.8 2.7,1270.8 8.3,1259.6 8.3,1288.3 14.9,1263 14.9,1293.3 24.4,1278.5 
			24.4,1304.6 30.4,1288.6 30.4,1309.6 37.4,1300.4 37.4,1322.1 44.2,1311.8 44.2,1334.6 52.2,1327.1 45.9,1344.6 59.3,1337 
			50.9,1355.8 63.8,1344.6 57.2,1367.1 67.7,1351.2 67.7,1374.6 76.2,1357.1 76.2,1380.8 79.4,1370.7 79.4,1393.3 84.7,1379.6 
			84.7,1404.6 92.1,1392.1 92.1,1404.6 104.6,1394.6 90.9,1418.3 104.6,1408.3 99.1,1421.8 111.9,1410.2 104.8,1426.9 115.8,1419.6 
			111.6,1431.2 118.3,1428.2 113.4,1443.1 123.1,1435.2 118.3,1450.7 127.4,1443.4 121.6,1461.1 132.6,1451 128,1464.2 136,1458.7 
			132.6,1469.3 136,1465.6 134.4,1484 142.7,1463.5 139.3,1482.8 146,1473 144.5,1491.3 150.9,1479.1 148.8,1498.6 156.4,1489.6 
			151.8,1504.7 161,1495.6 155.5,1507.8 164.6,1501.4 158.8,1517.2 166.2,1504.7 164.3,1526.7 168.9,1512.6 168.9,1526.7 
			177.1,1522.1 168.9,1536.1 178.7,1527.3 174.7,1540.1 180.8,1533.4 178.7,1545 185.1,1539.5 181.7,1554.4 188.1,1543.8 
			185.4,1561.1 191.5,1551.1 188.1,1565.4 194.4,1556 190.6,1570.9 197.9,1560.5 192.7,1578.2 200.6,1566 197,1580.1 203.4,1570.6 
			200,1588.6 207.3,1576.7 203.4,1593.8 209.8,1583.1 206.1,1597.7 213.7,1588.9 211.6,1600.4 219.5,1594.4 213.4,1608.4 
			221.1,1600.4 216.2,1614.5 221.1,1606 221.1,1617 228.1,1609.6 223.2,1622.1 229.6,1616.7 225.6,1628.2 232.3,1620.9 
			229.3,1633.7 235.4,1627 232,1639.2 238.1,1631.6 234.5,1645 240.4,1636.2 237.8,1649.9 243.3,1640.4 240.4,1654.2 246.7,1645.6 
			245.1,1661.4 249.4,1650.5 249.4,1663.6 254.6,1655.4 251.2,1673.1 258.3,1663.3 256.2,1675.5 261.9,1668.2 259.2,1683.8 
			264.4,1672.5 261.6,1689.9 268.9,1680.4 266.5,1695.6 276.9,1686.2 271.4,1704.8 279,1697.2 274.1,1713 281.7,1702.4 
			278.7,1720.7 284.5,1707.2 284.5,1723.7 288.2,1714.6 288.2,1734.1 293.9,1722.8 287.8,1742.3 296.4,1726.7 293.9,1742.3 
			300.7,1732.2 297.9,1753 305.8,1737.7 303.1,1760.9 309.8,1745.7 307.1,1768.5 315,1754.2 310.1,1773.1 315.3,1766.2 
			315.3,1783.8 321.7,1766.7 319.9,1785.6 325.4,1777.1 323.1,1794.2 332.4,1780.4 326.3,1799.7 334.2,1787.8 330.5,1804.5 
			340,1793.2 333.3,1812.8 341.5,1799 336.6,1818.9 343.4,1800.9 339.7,1826.2 347,1803.3 344,1823.7 349.8,1802.1 349.8,1818.3 
			353.4,1801.8 357.7,1814.4 357.7,1797.5 365.9,1807.9 364.7,1793.2 368.4,1802.1 368.4,1788.1 372.6,1802.7 372.6,1783.5 
			376,1804.2 378.4,1779.8 380.5,1798.4 381.8,1782.6 385.4,1795.4 385.4,1778 388.5,1792 388.5,1776.5 392.8,1786.5 392.8,1773.4 
			397.6,1792.3 397.6,1770.7 401,1782.9 401,1763.3 407.1,1788.1 405.6,1760.3 411.1,1781.4 409.8,1761.5 414.1,1773.7 
			414.1,1749.9 419,1777.4 419,1746.6 422,1769.5 422,1750.2 426.6,1765.5 426.6,1748.7 433.9,1767.6 432.7,1741.4 437.9,1761.5 
			437.9,1736.5 442.5,1755.7 442.5,1735.3 448.6,1754.2 448.6,1731.3 452.2,1745.7 452.2,1731.3 458.3,1755.4 458.3,1729.5 
			461.3,1740.8 461.3,1726.7 465,1745.1 465,1723.4 470.5,1745.4 470.5,1722.2 474.2,1736.2 475.7,1720 478.5,1726.7 478.5,1716.4 
			482.7,1733.8 482.7,1714.6 487.3,1731.6 487.3,1711.5 489.8,1724.6 492.5,1709.1 496.5,1723.1 496.5,1706 500.7,1714.3 
			500.7,1700.2 507.1,1719.7 504.7,1694.1 509.6,1710.9 509.6,1696 514.5,1713 516.6,1693.5 519,1703.3 521.5,1692 523.9,1705.7 
			523.9,1689.5 528.8,1705.4 528.8,1687.1 533.4,1699.6 533.4,1686.5 537.9,1695.6 539.5,1682.5 544.3,1697.8 544.3,1679.2 
			547.7,1690.8 550.4,1677.3 553.5,1691.4 554.7,1677.7 559.3,1691.7 559.3,1674.9 565.7,1683.8 565.7,1672.8 569.9,1678 
			569.9,1668.2 577.9,1682.2 576.4,1666.4 582.8,1677.3 582.8,1661.4 587.7,1674.3 590.4,1661.4 597.4,1671.6 597.4,1655.4 
			603.2,1667.3 603.2,1651.4 609.3,1659.4 609.3,1646.2 614.2,1663.3 614.2,1643.2 619.7,1656 619.7,1641.5 625.8,1649.9 
			622.1,1631.3 631.6,1653.3 627.9,1630.1 636.2,1644.4 633.7,1625.8 641.3,1636.5 641.3,1619.7 649,1634.3 647.7,1614.2 656,1627 
			653.8,1606.9 659.6,1617.3 659.6,1603.5 669.1,1624 666.4,1599 673.7,1610.9 673.7,1594.7 679.5,1617.9 679.5,1594.7 684,1610.9 
			684,1595 690.4,1608.4 692.6,1588 699.3,1610.6 699.3,1585.8 704.8,1602 706.3,1583.7 712.7,1602.3 712.7,1579.1 723.4,1604.8 
			721.9,1579.7 727.3,1596.8 727.3,1578.5 732.5,1593.2 732.5,1572.4 740.5,1588.3 740.5,1569.1 746.2,1587.7 741.7,1552.9 
			751.1,1590.1 746.2,1560.2 753.3,1581.9 749.6,1559 755.7,1574.9 755.7,1556.3 761.1,1571.5 761.1,1560.3 746.2,1542.2 695,1573 
			641.8,1591.7 592.4,1641.1 540.3,1669.9 461.3,1707 380.5,1752.3 352.4,1775.6 333.9,1768.2 289.5,1689.5 224.1,1570.6 
			84.6,1344.6 1.7,1207.4 		"/>
		<polygon class="st4" points="369.6,198.7 378.7,206.9 390.6,204 385.6,215.2 392,225.6 379.9,224.4 372,233.7 369.4,221.7 
			358.1,217.1 368.7,210.9 		"/>
		<polygon class="st4" points="366.1,266 373.3,275.9 385.5,275.6 378.3,285.5 382.3,297 370.7,293.2 361,300.6 361,288.4 
			351,281.5 362.6,277.7 		"/>
		<polygon class="st4" points="350.3,330.7 357.4,340.6 369.6,340.3 362.5,350.2 366.5,361.7 354.9,357.9 345.2,365.3 345.2,353.1 
			335.1,346.2 346.8,342.4 		"/>
		<polygon class="st4" points="341.9,398.8 349,408.7 361.3,408.4 354.1,418.3 358.1,429.8 346.5,426 336.8,433.4 336.8,421.2 
			326.8,414.3 338.4,410.5 		"/>
		<polygon class="st4" points="332.1,456 339.2,465.9 351.5,465.6 344.3,475.5 348.3,487 336.7,483.2 327,490.6 327,478.4 
			316.9,471.5 328.6,467.7 		"/>
		<polygon class="st4" points="321,521.6 328.1,531.5 340.3,531.2 333.2,541.1 337.2,552.6 325.6,548.8 315.9,556.2 315.9,544 
			305.8,537.1 317.5,533.3 		"/>
		<polygon class="st4" points="309.8,585.4 316.9,595.3 329.1,595.1 321.9,604.9 326,616.5 314.4,612.7 304.7,620.1 304.7,607.9 
			294.6,600.9 306.3,597.2 		"/>
		<polygon class="st4" points="297.9,648.5 305,658.4 317.2,658.1 310,667.9 314.1,679.5 302.5,675.7 292.8,683.1 292.8,670.9 
			282.7,663.9 294.4,660.2 		"/>
		<polygon class="st4" points="286.5,710.6 293.6,720.5 305.8,720.2 298.6,730.1 302.7,741.6 291.1,737.8 281.4,745.2 281.4,733 
			271.3,726.1 283,722.3 		"/>
		<polygon class="st4" points="321,237 328.1,246.9 340.3,246.6 333.2,256.5 337.2,268 325.6,264.2 315.9,271.7 315.9,259.4 
			305.8,252.5 317.5,248.7 		"/>
		<polygon class="st4" points="309.8,306.6 316.9,316.5 329.1,316.2 321.9,326.1 326,337.6 314.4,333.9 304.7,341.3 304.7,329 
			294.6,322.1 306.3,318.3 		"/>
		<polygon class="st4" points="297.9,365.3 305,375.2 317.2,374.9 310,384.8 314.1,396.3 302.5,392.5 292.8,400 292.8,387.7 
			282.7,380.8 294.4,377 		"/>
		<polygon class="st4" points="286.5,433.4 293.6,443.3 305.8,443 298.6,452.9 302.7,464.4 291.1,460.6 281.4,468 281.4,455.8 
			271.3,448.9 283,445.1 		"/>
		<polygon class="st4" points="275.3,494.1 282.4,504 294.6,503.7 287.4,513.6 291.5,525.1 279.9,521.3 270.2,528.7 270.2,516.5 
			260.1,509.6 271.8,505.8 		"/>
		<polygon class="st4" points="261.6,559.6 268.7,569.5 280.9,569.2 273.8,579.1 277.8,590.6 266.2,586.8 256.5,594.2 256.5,582 
			246.4,575.1 258.1,571.3 		"/>
		<polygon class="st4" points="247.9,623.2 255,633 267.3,632.8 260.1,642.6 264.1,654.2 252.5,650.4 242.8,657.8 242.8,645.6 
			232.8,638.6 244.4,634.9 		"/>
		<polygon class="st4" points="411.7,286.7 420,298.1 434.1,297.8 425.8,309.1 430.5,322.4 417.1,318 405.9,326.6 405.9,312.5 
			394.3,304.5 407.7,300.2 		"/>
		<polygon class="st4" points="402.9,353.1 411.2,364.5 425.2,364.2 416.9,375.6 421.6,388.8 408.2,384.5 397,393 397.1,378.9 
			385.5,370.9 398.9,366.6 		"/>
		<polygon class="st4" points="391.9,416.1 400.1,427.5 414.2,427.2 405.9,438.6 410.6,451.8 397.2,447.5 386,456 386,441.9 
			374.4,433.9 387.8,429.6 		"/>
		<polygon class="st4" points="442.7,441.8 450.9,453.2 465,452.8 456.7,464.2 461.4,477.5 448,473.1 436.8,481.7 436.8,467.6 
			425.2,459.6 438.6,455.3 		"/>
		<polygon class="st4" points="431.6,505.6 439.9,517 454,516.7 445.7,528.1 450.3,541.4 437,537 425.8,545.5 425.8,531.5 
			414.2,523.4 427.6,519.1 		"/>
		<polygon class="st4" points="422.8,568.6 431,580 445.1,579.7 436.8,591.1 441.5,604.4 428.1,600 416.9,608.5 416.9,594.5 
			405.4,586.5 418.8,582.1 		"/>
		<polygon class="st4" points="411.7,634.2 420,645.6 434.1,645.2 425.8,656.6 430.5,669.9 417.1,665.5 405.9,674.1 405.9,660 
			394.3,652 407.7,647.7 		"/>
		<polygon class="st4" points="478.1,594.2 486.4,605.7 500.4,605.3 492.1,616.7 496.8,630 483.4,625.6 472.2,634.2 472.3,620.1 
			460.7,612.1 474.1,607.7 		"/>
		<polygon class="st4" points="490,528.7 498.3,540.1 512.4,539.8 504.1,551.2 508.7,564.5 495.3,560.1 484.2,568.6 484.2,554.5 
			472.6,546.5 486,542.2 		"/>
		<polygon class="st4" points="378.1,481.7 386.3,493.1 400.4,492.7 392.1,504.1 396.8,517.4 383.4,513 372.2,521.6 372.2,507.5 
			360.6,499.5 374.1,495.2 		"/>
		<polygon class="st4" points="365.8,545.5 374,556.9 388.1,556.6 379.8,568 384.5,581.3 371.1,576.9 359.9,585.4 359.9,571.4 
			348.3,563.4 361.7,559 		"/>
		<polygon class="st4" points="355.6,608.5 363.9,620 378,619.6 369.7,631 374.4,644.3 361,639.9 349.8,648.5 349.8,634.4 
			338.2,626.4 351.6,622 		"/>
		<polygon class="st4" points="345.9,670.7 354.1,682.1 368.2,681.8 359.9,693.2 364.6,706.4 351.2,702.1 340,710.6 340,696.5 
			328.4,688.5 341.8,684.2 		"/>
		<polygon class="st4" points="328.7,172.3 337.8,180.5 349.7,177.6 344.8,188.8 351.2,199.2 339,198 331.1,207.3 328.5,195.3 
			317.2,190.7 327.8,184.5 		"/>
		<polygon class="st4" points="338.5,105.1 347.6,113.2 359.5,110.4 354.6,121.5 361,131.9 348.8,130.7 340.9,140 338.3,128.1 
			327,123.4 337.6,117.3 		"/>
		<polygon class="st4" points="300.4,155 307.7,161.5 317.3,159.2 313.3,168.2 318.4,176.6 308.7,175.6 302.3,183.1 300.2,173.5 
			291.1,169.7 299.6,164.8 		"/>
		<polygon class="st4" points="278.5,222.6 284.8,230.1 294.6,229.2 289.4,237.5 293.3,246.6 283.8,244.2 276.4,250.7 275.7,240.9 
			267.3,235.9 276.4,232.2 		"/>
		<polygon class="st4" points="261.3,286.6 267.6,294.1 277.4,293.2 272.2,301.5 276.1,310.5 266.5,308.2 259.2,314.7 258.5,304.8 
			250,299.8 259.1,296.2 		"/>
		<polygon class="st4" points="247.6,351.3 253.9,358.8 263.7,357.9 258.5,366.2 262.4,375.3 252.8,372.9 245.5,379.4 244.8,369.6 
			236.3,364.6 245.4,360.9 		"/>
		<polygon class="st4" points="233.9,413.1 240.2,420.7 250,419.8 244.8,428.1 248.7,437.1 239.2,434.7 231.8,441.2 231.1,431.4 
			222.6,426.4 231.8,422.8 		"/>
		<polygon class="st4" points="216.6,476.6 223,484.1 232.8,483.2 227.5,491.5 231.5,500.6 221.9,498.2 214.5,504.7 213.8,494.9 
			205.4,489.9 214.5,486.2 		"/>
		<polygon class="st4" points="206.5,534.6 212.8,542.2 222.6,541.2 217.4,549.6 221.3,558.6 211.8,556.2 204.4,562.7 203.7,552.9 
			195.3,547.9 204.4,544.2 		"/>
		<polygon class="st4" points="175.9,459.3 182.2,466.8 192,465.9 186.8,474.2 190.7,483.3 181.1,480.9 173.8,487.4 173.1,477.6 
			164.6,472.6 173.7,468.9 		"/>
		<polygon class="st4" points="451.5,384.7 457.9,392.3 467.7,391.4 462.4,399.7 466.4,408.7 456.8,406.3 449.4,412.8 448.8,403 
			440.3,398 449.4,394.3 		"/>
		<polygon class="st8" points="334.2,64.5 334.2,24.8 344,0 369.6,0 369.6,19.3 380.5,19.3 375.1,29 389.4,32.2 380.5,39.5 
			394.3,44.7 385.5,44.7 392,52 380.5,52 380.5,59.8 394.3,67.1 385.5,67.1 394.3,78.6 380.5,75.5 380.5,83.4 388.8,92.5 
			377.9,92.5 387.6,105.1 380.5,105.1 385.5,118.4 374.4,110 380.5,129.3 364.3,100.9 		"/>
	</g>
</g>
<g id="white_shirt">
</g>
<g id="tie">
</g>
<g id="arms">
</g>
<g id="suit_1">
</g>
</svg>
