<?xml version="1.0" encoding="utf-8"?>
<!-- Generator: Adobe Illustrator 19.0.1, SVG Export Plug-In . SVG Version: 6.00 Build 0)  -->
<svg version="1.1" xmlns="http://www.w3.org/2000/svg" xmlns:xlink="http://www.w3.org/1999/xlink" x="0px" y="0px"
	 viewBox="0 0 1080.5 656.1" style="enable-background:new 0 0 1080.5 656.1;" xml:space="preserve">
<style type="text/css">
	.st0{opacity:0.55;fill:#161926;}
	.st1{fill:#273058;}
	.st2{fill:#313E7D;}
	.st3{fill:#F1D232;}
	.st4{fill:#FFFFFF;}
	.st5{fill:#761F26;}
	.st6{fill:#F3D332;}
	.st7{fill:#EDBA31;}
	.st8{fill:#EBB932;}
	.st9{fill:#F3D332;stroke:#FFFFFF;stroke-width:7;stroke-linecap:round;stroke-linejoin:round;stroke-miterlimit:10;}
	.st10{fill:#F3D332;stroke:#FFFFFF;stroke-width:5;stroke-linecap:round;stroke-linejoin:round;stroke-miterlimit:10;}
	.st11{fill:none;stroke:#EBB932;stroke-width:9;stroke-linecap:round;stroke-miterlimit:10;}
	.st12{fill:none;stroke:#FFFFFF;stroke-width:9;stroke-linecap:round;stroke-miterlimit:10;}
	.st13{fill:#F3D332;stroke:#FFFFFF;stroke-width:7;stroke-miterlimit:10;}
	.st14{fill:#F0F1F2;}
	.st15{fill:none;stroke:#9E9E9E;stroke-miterlimit:10;}
	.st16{fill:#9C252A;}
	.st17{fill:#D3AA93;}
	.st18{fill:none;stroke:#D48336;stroke-linecap:round;stroke-linejoin:round;stroke-miterlimit:10;}
	.st19{fill:#1D1E1F;}
	.st20{fill:none;stroke:#272E3E;stroke-miterlimit:10;}
	.st21{fill:#9E9E9E;}
</style>
<g id="Layer_1">
	<g>
		<polygon class="st1" points="0,346.4 91.4,656.1 569.9,656.1 569.9,273.6 		"/>
		<polygon class="st1" points="1080.5,346.4 989.1,656.1 510.5,656.1 510.5,273.6 		"/>
		<g>
			<rect x="0" class="st2" width="1080" height="346.4"/>
		</g>
		<g>
			<path class="st5" d="M1055.3,21.5v303.4H24.7V21.5H1055.3 M1061.3,15.5H18.7v315.4h1042.7V15.5L1061.3,15.5z"/>
		</g>
		<g>
			<rect x="437.2" y="12.5" class="st2" width="213.7" height="72.8"/>
		</g>
		<g>
			<rect x="437.2" y="273.6" class="st2" width="213.7" height="72.8"/>
		</g>
		<g>
			<polygon class="st5" points="468.7,9.9 471.1,14.9 476.7,15.7 472.7,19.6 473.6,25.1 468.7,22.5 463.7,25.1 464.6,19.6 
				460.6,15.7 466.2,14.9 			"/>
			<polygon class="st5" points="505.1,9.9 507.6,14.9 513.1,15.7 509.1,19.6 510.1,25.1 505.1,22.5 500.1,25.1 501.1,19.6 
				497.1,15.7 502.6,14.9 			"/>
			<polygon class="st5" points="541.5,9.9 544,14.9 549.6,15.7 545.5,19.6 546.5,25.1 541.5,22.5 536.6,25.1 537.5,19.6 533.5,15.7 
				539.1,14.9 			"/>
			<polygon class="st5" points="578,9.9 580.4,14.9 586,15.7 582,19.6 582.9,25.1 578,22.5 573,25.1 574,19.6 569.9,15.7 
				575.5,14.9 			"/>
			<polygon class="st5" points="614.4,9.9 616.9,14.9 622.4,15.7 618.4,19.6 619.4,25.1 614.4,22.5 609.4,25.1 610.4,19.6 
				606.4,15.7 611.9,14.9 			"/>
		</g>
		<g>
			<polygon class="st5" points="468.7,320 471.1,325 476.7,325.8 472.7,329.7 473.6,335.3 468.7,332.6 463.7,335.3 464.6,329.7 
				460.6,325.8 466.2,325 			"/>
			<polygon class="st5" points="505.1,320 507.6,325 513.1,325.8 509.1,329.7 510.1,335.3 505.1,332.6 500.1,335.3 501.1,329.7 
				497.1,325.8 502.6,325 			"/>
			<polygon class="st5" points="541.5,320 544,325 549.6,325.8 545.5,329.7 546.5,335.3 541.5,332.6 536.6,335.3 537.5,329.7 
				533.5,325.8 539.1,325 			"/>
			<polygon class="st5" points="578,320 580.4,325 586,325.8 582,329.7 582.9,335.3 578,332.6 573,335.3 574,329.7 569.9,325.8 
				575.5,325 			"/>
			<polygon class="st5" points="614.4,320 616.9,325 622.4,325.8 618.4,329.7 619.4,335.3 614.4,332.6 609.4,335.3 610.4,329.7 
				606.4,325.8 611.9,325 			"/>
		</g>
		<g>
			<path class="st4" d="M209.1,62.2v19.9h-31.2v68.5H146V82.1h-31.4V62.2H209.1z"/>
			<path class="st4" d="M248.6,62.3h64.9c7.8,0.1,17.2,0.2,24.6,5.6c6.4,4.9,10.4,13.5,10.4,22.4c0,6.2-2,12.4-5.6,16.8
				c-5,6-11,7.2-14.8,8.2l22.1,35.2h-35l-18.1-32.1h-16.9v32.1h-31.6V62.3z M280.3,98.5H304c4.9,0,12.9-0.1,12.9-8
				c0-2-0.6-4.1-2.2-5.6c-2.5-2.2-5.8-2.5-8.1-2.5h-26.2V98.5z"/>
			<path class="st4" d="M426.4,62.3v88.2h-31.6V62.3H426.4z"/>
			<path class="st4" d="M503.1,106.5c0,13.4,7.9,27.2,26,27.2c6.9,0,13.2-2.1,17.9-5.9c4.1-3.4,5.4-6.2,6.4-8.9l30.1,3.1
				c-1,3.2-2.1,6.5-5,11c-10.4,16-30.6,20.5-50,20.5c-8.6,0-17.1-0.8-25.3-3.2c-18.1-5.6-33.1-19.5-33.1-43.8c0-17.1,9-48,59.3-48
				c42.9,0,49.6,19.5,52.5,27.9l-29.2,5.2c-1.2-2.5-2.8-5.9-7.4-8.9c-4.7-3-10.6-4-15.1-4C515.9,78.8,503.1,87.7,503.1,106.5z"/>
			<path class="st4" d="M654.5,62.3v33l29.6-33h38.2l-34.6,33.4l38.6,54.9h-37.9l-23.2-33.4l-10.9,10.5v22.9h-29.2V62.3H654.5z"/>
			<path class="st4" d="M794.9,62.3v66.8h45v21.5h-76.8V62.3H794.9z"/>
			<path class="st4" d="M973.4,62.3v19.9H912v14.4h56.8v20h-56.9v14h62.8v20h-94.2V62.3H973.4z"/>
			<path class="st4" d="M342,193.3h50.1c9.1,0,34.8-0.5,47,20.9c1.9,3.2,6.1,11,6.1,24.1c0,6.9-1.2,13.9-4,20.1
				c-2.2,5.1-6.4,12.2-16.5,17.5c-9.5,5-18.2,5.6-26.8,5.6h-56V193.3z M372.8,261.6h13.9c10.8,0,16.9-2,20.5-5.2
				c4.2-3.8,7.1-11.1,7.1-18.6c0-8.4-3.4-14.8-7.9-18.4c-5.5-4.4-13-5-18.9-5h-14.8V261.6z"/>
			<path class="st4" d="M576.6,195.2c20.2,8.2,27.4,26.8,27.4,41.9c0,8.2-2,16.8-6.4,24c-2.8,4.6-6.2,8.6-10.5,11.9
				c-12,9.5-26.2,11.8-42.2,11.8c-30.7,0-43.4-10.9-49.9-19.8c-6-8-8.4-16.5-8.4-26.6c0-9.9,2.5-19.6,8.1-27.6
				c12.4-17.5,33.4-20.4,49-20.6C554.7,190,566.5,191.1,576.6,195.2z M519.1,237.3c0,13.6,7.4,27.8,26.5,27.8
				c4.4,0,8.9-0.5,12.8-2.5c9.8-4.9,13.1-16.4,13.1-25.2c0-9.6-4.2-27.4-25.9-27.6C525.7,209.5,519.1,225.2,519.1,237.3z"/>
			<path class="st4" d="M649.5,193.3h26.1l27.1,29.8c7.8,8.4,9.4,10.4,15.6,18.5c-0.5-12.1-0.6-16.4-0.6-28.2v-20h31.1v88.2h-26.2
				l-32.4-36.5c-4.5-5.2-6-7.1-10-12.1c0.4,15.2,0.4,18.6,0.5,29.9v18.8h-31.2V193.3z"/>
		</g>
	</g>
</g>
<g id="Layer_2">
</g>
<g id="white_shirt">
</g>
<g id="tie">
</g>
<g id="arms">
</g>
<g id="suit_1">
</g>
</svg>
