<?xml version="1.0" encoding="utf-8"?>
<!-- Generator: Adobe Illustrator 19.0.1, SVG Export Plug-In . SVG Version: 6.00 Build 0)  -->
<svg version="1.1" xmlns="http://www.w3.org/2000/svg" xmlns:xlink="http://www.w3.org/1999/xlink" x="0px" y="0px"
	 viewBox="0 0 653.4 304.6" style="enable-background:new 0 0 653.4 304.6;" xml:space="preserve">
<style type="text/css">
	.st0{opacity:0.55;fill:#161926;}
	.st1{fill:#273058;}
	.st2{fill:#313E7D;}
	.st3{fill:#F1D232;}
	.st4{fill:#FFFFFF;}
	.st5{fill:#761F26;}
	.st6{fill:#F3D332;}
	.st7{fill:#EDBA31;}
	.st8{fill:#EBB932;}
	.st9{fill:#F3D332;stroke:#FFFFFF;stroke-width:7;stroke-linecap:round;stroke-linejoin:round;stroke-miterlimit:10;}
	.st10{fill:#F3D332;stroke:#FFFFFF;stroke-width:5;stroke-linecap:round;stroke-linejoin:round;stroke-miterlimit:10;}
	.st11{fill:none;stroke:#EBB932;stroke-width:9;stroke-linecap:round;stroke-miterlimit:10;}
	.st12{fill:none;stroke:#FFFFFF;stroke-width:9;stroke-linecap:round;stroke-miterlimit:10;}
	.st13{fill:#F3D332;stroke:#FFFFFF;stroke-width:7;stroke-miterlimit:10;}
	.st14{fill:#F0F1F2;}
	.st15{fill:none;stroke:#9E9E9E;stroke-miterlimit:10;}
	.st16{fill:#9C252A;}
	.st17{fill:#D3AA93;}
	.st18{fill:none;stroke:#D48336;stroke-linecap:round;stroke-linejoin:round;stroke-miterlimit:10;}
	.st19{fill:#1D1E1F;}
	.st20{fill:none;stroke:#272E3E;stroke-miterlimit:10;}
	.st21{fill:#9E9E9E;}
</style>
<g id="Layer_1">
	<g>
		<rect x="306" y="0" class="st6" width="37.9" height="217.1"/>
		<g>
			<path class="st6" d="M643.5,304.6H9.9c-5.4,0-9.9-4.4-9.9-9.9v0c0-5.4,4.4-9.9,9.9-9.9h633.6c5.4,0,9.9,4.4,9.9,9.9v0
				C653.4,300.1,648.9,304.6,643.5,304.6z"/>
			<path class="st6" d="M637.4,277.8c0,0,3.5-46.1-18.5-64.1c-55.4-45.3-206.6-52.2-291.7-52.2c-80,0-235.4,6.8-294.7,51.6
				C9.3,230.6,17,277.8,17,277.8H637.4z"/>
		</g>
		<g>
			<path class="st7" d="M98.5,258.3c-3.1,1.8-6.5,2.7-10.2,2.7c-4.4,0-7.9-1.5-10.3-4.5c-2.3-2.8-3.4-6.4-3.4-10.9
				c0-6.4,2.1-11.1,6.4-13.9c2.1-1.4,4.6-2.2,7.4-2.2c3.8,0,7,1.2,9.7,3.5l-3.3,3.8c-1.9-1.6-4.1-2.4-6.4-2.4
				c-2.8,0-4.8,1.3-5.9,3.8c-0.7,1.7-1.1,4.3-1.1,7.6c0,3.2,0.4,5.6,1.2,7.2c1.1,2.2,3.1,3.3,5.9,3.3c1.3,0,2.5-0.2,3.5-0.7v-7h-4.7
				l-0.8-5h11.8V258.3z"/>
			<path class="st7" d="M132.5,245.2c0,7.2-2.3,12-6.8,14.5c-1.7,0.9-3.7,1.4-6.1,1.4c-4.4,0-7.8-1.5-10.2-4.6
				c-2.2-2.8-3.3-6.5-3.3-11c0-3,0.5-5.7,1.5-8.1c1.2-2.8,3-4.9,5.4-6.2c1.8-1,3.9-1.5,6.3-1.5c4.3,0,7.7,1.5,10,4.6
				C131.5,237.1,132.5,240.7,132.5,245.2z M125.4,245.4c0-3-0.3-5.4-0.8-7.1c-0.4-1.2-1-2.1-2-2.8c-1-0.7-2.1-1.1-3.4-1.1
				c-4.2,0-6.3,3.7-6.3,11c0,5.3,0.9,8.6,2.7,9.9c0.9,0.7,2.2,1.1,3.7,1.1c2.6,0,4.3-1.3,5.2-3.9C125.1,251,125.4,248.6,125.4,245.4
				z"/>
			<path class="st7" d="M159.2,255.6l-1.1,5.1H142v-30.6h6.3v25.5H159.2z"/>
			<path class="st7" d="M190,245.7c0,3.7-0.8,6.9-2.5,9.6c-1.9,3.2-4.6,4.9-8,5.2c-1.2,0.1-2.7,0.2-4.4,0.2h-7.4v-30.4h6.3
				c2.1,0,3.8,0.1,5.3,0.2c2.6,0.2,4.8,1.2,6.6,3C188.7,236.2,190,240.2,190,245.7z M183.1,246.2c0-3.2-0.3-5.6-0.9-7.3
				c-1-2.6-2.8-3.9-5.4-3.9H174v20.5h3.3C181.2,255.7,183.1,252.5,183.1,246.2z"/>
			<path class="st7" d="M217.1,260.7h-17.8v-30.6h17.4l-0.8,5h-10.3v7.1h8.6v5h-8.6v8.2h11.5V260.7z"/>
			<path class="st7" d="M247.5,260.7H241l-5.2-11.7c-2.2-5-3.6-8.3-4.1-10c0.1,1.8,0.2,4.7,0.3,8.7l0.2,13.1h-5.9v-30.6h6.8
				l5.9,12.2c1.5,3.1,2.6,5.9,3.3,8.7c-0.3-3.3-0.5-6.1-0.5-8.4l-0.1-12.5h5.9V260.7z"/>
			<path class="st7" d="M300.3,230.1l-9.8,18v12.6h-6.4v-12.6l-9.5-18.1h7.4l4,8.4c0.6,1.4,1.2,2.7,1.5,3.9c0.7-1.8,1.3-3.1,1.6-3.8
				l4-8.5H300.3z"/>
			<path class="st7" d="M324.9,260.7H307v-30.6h17.4l-0.8,5h-10.3v7.1h8.6v5h-8.6v8.2h11.5V260.7z"/>
			<path class="st7" d="M356.6,260.7h-6.5l-2.2-7.3h-8.9l-2.2,7.3h-6.4l10-30.7h6.6L356.6,260.7z M346.4,248.3
				c-0.4-1.2-0.9-3.2-1.7-6.2c-0.1-0.3-0.5-2.1-1.2-5.4l-1.5,5.9c-0.5,1.9-1,3.8-1.6,5.7H346.4z"/>
			<path class="st7" d="M385.7,260.7h-7.3c-1.2-2-2.1-3.7-2.9-5c-1.3-2.3-2-3.7-2.2-4c-1.2-2-2.2-3.1-2.9-3.5
				c-0.3-0.1-0.6-0.2-1-0.3v12.8h-6v-30.6l11.4,0c2.7,0,4.9,0.8,6.5,2.4c1.6,1.6,2.5,3.8,2.5,6.5c0,2.1-0.6,4-1.8,5.7
				c-1.3,1.8-3,2.7-5,2.8c0.5,0.4,0.9,0.8,1.3,1.3C379.4,250.1,381.9,254.1,385.7,260.7z M377.4,239.2c0-1.7-0.6-2.8-1.7-3.5
				c-0.9-0.5-2.2-0.7-4-0.7h-2.2v8.3h2.1c1.9,0,3.2-0.2,4-0.7C376.9,242,377.4,240.9,377.4,239.2z"/>
			<path class="st7" d="M414.4,251c0,3.4-1.3,6-3.9,7.8c-2.3,1.6-5.2,2.5-8.7,2.5c-3.7,0-7.2-0.9-10.4-2.8l2.3-4.8
				c3.1,1.6,5.9,2.5,8.4,2.5c3.6,0,5.4-1.4,5.4-4.2c0-1.9-1.3-3.2-4-4l-3.4-0.9c-4.9-1.3-7.3-4.2-7.3-8.5c0-3,1.1-5.3,3.3-7
				c2-1.6,4.6-2.4,7.6-2.4c4,0,7.4,1,10.2,3.1l-2.9,4.4c-2.6-1.6-5-2.3-7.1-2.3c-1.2,0-2.2,0.3-2.9,0.9c-0.9,0.6-1.3,1.5-1.3,2.6
				c0,1.4,1.1,2.5,3.4,3.1l3.7,1C411.8,243.3,414.4,246.4,414.4,251z"/>
			<path class="st7" d="M466,260.7h-6.5l-2.2-7.3h-8.9l-2.2,7.3h-6.4l10-30.7h6.6L466,260.7z M455.8,248.3c-0.4-1.2-0.9-3.2-1.7-6.2
				c-0.1-0.3-0.5-2.1-1.2-5.4l-1.5,5.9c-0.5,1.9-1,3.8-1.6,5.7H455.8z"/>
			<path class="st7" d="M494.5,260.7h-6.3V247h-8.8v13.6h-6.1v-30.6h6.1V242h8.8v-11.9h6.3V260.7z"/>
			<path class="st7" d="M523.3,260.7h-17.8v-30.6h17.4l-0.8,5h-10.3v7.1h8.6v5h-8.6v8.2h11.5V260.7z"/>
			<path class="st7" d="M555.1,260.7h-6.5l-2.2-7.3h-8.9l-2.2,7.3h-6.4l10-30.7h6.6L555.1,260.7z M544.8,248.3
				c-0.4-1.2-0.9-3.2-1.7-6.2c-0.1-0.3-0.5-2.1-1.2-5.4l-1.5,5.9c-0.5,1.9-1,3.8-1.6,5.7H544.8z"/>
			<path class="st7" d="M584.5,245.7c0,3.7-0.8,6.9-2.5,9.6c-1.9,3.2-4.6,4.9-8,5.2c-1.2,0.1-2.7,0.2-4.4,0.2h-7.4v-30.4h6.3
				c2.1,0,3.8,0.1,5.3,0.2c2.6,0.2,4.8,1.2,6.6,3C583.2,236.2,584.5,240.2,584.5,245.7z M577.6,246.2c0-3.2-0.3-5.6-0.9-7.3
				c-1-2.6-2.8-3.9-5.4-3.9h-2.8v20.5h3.3C575.7,255.7,577.6,252.5,577.6,246.2z"/>
		</g>
		<polygon class="st7" points="145.7,227.6 148.3,230.1 145.2,230.1 		"/>
		<polygon class="st8" points="156.7,253.1 159.2,255.5 158.2,257.1 154.5,256.2 		"/>
		<polygon class="st8" points="139.5,258.1 142,260.6 143.2,260.6 143.2,255.7 		"/>
		<polygon class="st8" points="107.9,255.2 111.2,258.6 114.8,255 		"/>
		<polygon class="st8" points="128.3,233.2 125.6,230.5 124.2,232.8 129.9,238.1 		"/>
		<polygon class="st8" points="165.2,258.1 167.7,260.6 168.5,259.8 168.5,255.7 		"/>
		<polygon class="st8" points="186.3,233.9 182.8,230.4 182.5,232.9 186.9,237.5 		"/>
		<polygon class="st8" points="214.6,252.9 217.1,255.3 217.1,255.5 214.1,256.1 214.1,253.2 		"/>
		<polygon class="st8" points="196.8,258.1 199.2,260.7 200.1,260.2 200.1,256.5 		"/>
		<polygon class="st8" points="211.7,239.6 214.2,242.1 214.2,242.6 210.9,242.6 211.4,240.6 		"/>
		<polygon class="st8" points="214.2,227.5 216.7,230.1 216.6,230.3 213.6,230.5 		"/>
		<polygon class="st8" points="230.6,227.6 233.1,230.1 230.6,230.8 		"/>
		<polygon class="st8" points="223.8,258.1 226.2,260.7 226.9,260.4 226.9,256.8 		"/>
		<polygon class="st8" points="238.6,258.1 241.1,260.7 242.2,256.9 		"/>
		<polygon class="st8" points="245,227.5 247.5,230.1 244.9,231.3 243.9,228.6 		"/>
		<polygon class="st8" points="279.4,227.5 281.9,230.1 279.8,230.8 		"/>
		<polygon class="st8" points="297.8,227.5 300.2,230.1 299,231.3 294.3,230.5 		"/>
		<polygon class="st8" points="281.6,258.1 284.1,260.7 284.8,260.3 284.8,257.1 		"/>
		<polygon class="st8" points="319.5,239.6 321.9,242.2 320.3,245.3 319,243.3 		"/>
		<polygon class="st8" points="322.4,252.8 324.8,255.4 322.9,256.6 321.1,255.6 		"/>
		<polygon class="st8" points="304.5,258.1 307,260.7 308,260.7 308,256.7 		"/>
		<polygon class="st8" points="322,227.5 324.4,230.1 323.4,231.2 322.4,230.9 319.7,229.5 		"/>
		<polygon class="st8" points="327.8,258.1 330.3,260.7 330.8,260.7 331.9,256.6 		"/>
		<polygon class="st8" points="347.6,258.1 350,260.7 351.1,259.5 350.3,257 		"/>
		<polygon class="st8" points="344.5,227.5 347,230 345.5,231.4 343.7,231.4 		"/>
		<polygon class="st8" points="378.8,229.8 381.8,232.9 378.8,233.2 		"/>
		<polygon class="st8" points="376,258.1 378.5,260.7 378.7,257 		"/>
		<polygon class="st8" points="361.1,258.1 363.6,260.7 363.8,256.8 		"/>
		<polygon class="st8" points="388.8,256 391.3,258.6 393.5,257 		"/>
		<polygon class="st8" points="391.7,241.2 394.7,244.3 395.6,242.5 		"/>
		<polygon class="st8" points="411.3,229.7 413.8,232.2 410.6,233.3 408.1,230.7 		"/>
		<polyline class="st8" points="409.1,241.9 411.6,244.4 410,244.7 409,241.9 		"/>
		<polygon class="st8" points="453.9,227.5 456.4,230.1 453.9,231.2 		"/>
		<polygon class="st8" points="457,258.1 459.4,260.6 459.9,257.2 		"/>
		<polygon class="st8" points="437.2,258.1 439.7,260.7 441.9,257.8 		"/>
		<polygon class="st8" points="470.8,258.1 473.3,260.7 474.5,257.4 		"/>
		<polygon class="st8" points="485.7,258.1 488.2,260.7 489.2,257.5 		"/>
		<polygon class="st8" points="476.9,227.5 479.4,230.1 477.6,231.7 474.8,229.6 		"/>
		<polygon class="st8" points="492,227.6 494.4,230.1 492.6,231.6 490.2,230.7 		"/>
		<polygon class="st8" points="503,258.1 505.4,260.7 507.1,257.2 		"/>
		<polygon class="st8" points="520.8,252.8 523.3,255.4 522.8,256.3 518.2,256.1 		"/>
		<polygon class="st8" points="517.9,239.6 520.4,242.2 519.7,243.5 516.8,243.4 		"/>
		<polygon class="st8" points="520.4,227.5 522.9,230.1 521.5,231.1 519.4,230.7 		"/>
		<polygon class="st8" points="526.3,258.1 528.8,260.7 529.9,260 530.6,256.8 		"/>
		<polygon class="st8" points="546,258.1 548.5,260.7 549.2,260.7 548.4,256.8 		"/>
		<polygon class="st8" points="542.9,227.5 545.4,230 544.3,231.1 542.6,230.8 		"/>
		<polygon class="st8" points="559.7,258.1 562.2,260.7 563.6,259.5 563.4,256.4 		"/>
		<polygon class="st8" points="577.7,230.7 580.8,233.9 578,234.9 		"/>
		<polygon class="st8" points="95.9,241.2 98.4,243.7 96.9,245.6 93.9,245.1 		"/>
		<polygon class="st8" points="84.9,246.2 87.4,248.7 88.4,245.8 		"/>
		<polygon class="st8" points="95.6,230.6 98.1,233.1 96.7,233.8 93.5,231.2 		"/>
		<polygon class="st8" points="75.7,254.2 79.1,257.7 79.1,253.2 		"/>
		<g>
			<path class="st4" d="M96,255.8c-3.1,1.8-6.5,2.7-10.2,2.7c-4.4,0-7.9-1.5-10.3-4.5c-2.3-2.8-3.4-6.4-3.4-10.9
				c0-6.4,2.1-11.1,6.4-13.9c2.1-1.4,4.6-2.2,7.4-2.2c3.8,0,7,1.2,9.7,3.5l-3.3,3.8c-1.9-1.6-4.1-2.4-6.4-2.4
				c-2.8,0-4.8,1.3-5.9,3.8c-0.7,1.7-1.1,4.3-1.1,7.6c0,3.2,0.4,5.6,1.2,7.2c1.1,2.2,3.1,3.3,5.9,3.3c1.3,0,2.5-0.2,3.5-0.7v-7H85
				l-0.8-5H96V255.8z"/>
			<path class="st4" d="M130,242.7c0,7.2-2.3,12-6.8,14.5c-1.7,0.9-3.7,1.4-6.1,1.4c-4.4,0-7.8-1.5-10.2-4.6
				c-2.2-2.8-3.3-6.5-3.3-11c0-3,0.5-5.7,1.5-8.1c1.2-2.8,3-4.9,5.4-6.2c1.8-1,3.9-1.5,6.3-1.5c4.3,0,7.7,1.5,10,4.6
				C129,234.5,130,238.2,130,242.7z M123,242.9c0-3-0.3-5.4-0.8-7.1c-0.4-1.2-1-2.1-2-2.8c-1-0.7-2.1-1.1-3.4-1.1
				c-4.2,0-6.3,3.7-6.3,11c0,5.3,0.9,8.6,2.7,9.9c0.9,0.7,2.2,1.1,3.7,1.1c2.6,0,4.3-1.3,5.2-3.9C122.7,248.4,123,246,123,242.9z"/>
			<path class="st4" d="M156.7,253l-1.1,5.1h-16.1v-30.6h6.3V253H156.7z"/>
			<path class="st4" d="M187.6,243.1c0,3.7-0.8,6.9-2.5,9.6c-1.9,3.2-4.6,4.9-8,5.2c-1.2,0.1-2.7,0.2-4.4,0.2h-7.4v-30.4h6.3
				c2.1,0,3.8,0.1,5.3,0.2c2.6,0.2,4.8,1.2,6.6,3C186.2,233.6,187.6,237.7,187.6,243.1z M180.7,243.7c0-3.2-0.3-5.6-0.9-7.3
				c-1-2.6-2.8-3.9-5.4-3.9h-2.8v20.5h3.3C178.7,253.1,180.7,250,180.7,243.7z"/>
			<path class="st4" d="M214.6,258.1h-17.8v-30.6h17.4l-0.8,5h-10.3v7.1h8.6v5h-8.6v8.2h11.5V258.1z"/>
			<path class="st4" d="M245,258.1h-6.4l-5.2-11.7c-2.2-5-3.6-8.3-4.1-10c0.1,1.8,0.2,4.7,0.3,8.7l0.2,13.1h-5.9v-30.6h6.8l5.9,12.2
				c1.5,3.1,2.6,5.9,3.3,8.7c-0.3-3.3-0.5-6.1-0.5-8.4l-0.1-12.5h5.9V258.1z"/>
			<path class="st4" d="M297.8,227.5l-9.8,18v12.6h-6.4v-12.6l-9.5-18.1h7.4l4,8.4c0.6,1.4,1.2,2.7,1.5,3.9c0.7-1.8,1.3-3.1,1.6-3.8
				l4-8.5H297.8z"/>
			<path class="st4" d="M322.4,258.1h-17.8v-30.6H322l-0.8,5h-10.3v7.1h8.6v5h-8.6v8.2h11.5V258.1z"/>
			<path class="st4" d="M354.2,258.1h-6.5l-2.2-7.3h-8.9l-2.2,7.3h-6.4l10-30.7h6.6L354.2,258.1z M343.9,245.8
				c-0.4-1.2-0.9-3.2-1.7-6.2c-0.1-0.3-0.5-2.1-1.2-5.4l-1.5,5.9c-0.5,1.9-1,3.8-1.6,5.7H343.9z"/>
			<path class="st4" d="M383.3,258.1H376c-1.2-2-2.1-3.7-2.9-5c-1.3-2.3-2-3.7-2.2-4c-1.2-2-2.2-3.1-2.9-3.5c-0.3-0.1-0.6-0.2-1-0.3
				v12.8h-6v-30.6l11.4,0c2.7,0,4.9,0.8,6.5,2.4c1.6,1.6,2.5,3.8,2.5,6.5c0,2.1-0.6,4-1.8,5.7c-1.3,1.8-3,2.7-5,2.8
				c0.5,0.4,0.9,0.8,1.3,1.3C377,247.6,379.4,251.6,383.3,258.1z M375,236.6c0-1.7-0.6-2.8-1.7-3.5c-0.9-0.5-2.2-0.7-4-0.7h-2.2v8.3
				h2.1c1.9,0,3.2-0.2,4-0.7C374.4,239.5,375,238.3,375,236.6z"/>
			<path class="st4" d="M411.9,248.5c0,3.4-1.3,6-3.9,7.8c-2.3,1.6-5.2,2.5-8.7,2.5c-3.7,0-7.2-0.9-10.4-2.8l2.3-4.8
				c3.1,1.6,5.9,2.5,8.4,2.5c3.6,0,5.4-1.4,5.4-4.2c0-1.9-1.3-3.2-4-4l-3.4-0.9c-4.9-1.3-7.3-4.2-7.3-8.5c0-3,1.1-5.3,3.3-7
				c2-1.6,4.6-2.4,7.6-2.4c4,0,7.4,1,10.2,3.1l-2.9,4.4c-2.6-1.6-5-2.3-7.1-2.3c-1.2,0-2.2,0.3-2.9,0.9c-0.9,0.6-1.3,1.5-1.3,2.6
				c0,1.4,1.1,2.5,3.4,3.1l3.7,1C409.3,240.8,411.9,243.8,411.9,248.5z"/>
			<path class="st4" d="M463.6,258.1H457l-2.2-7.3h-8.9l-2.2,7.3h-6.4l10-30.7h6.6L463.6,258.1z M453.3,245.8
				c-0.4-1.2-0.9-3.2-1.7-6.2c-0.1-0.3-0.5-2.1-1.2-5.4l-1.5,5.9c-0.5,1.9-1,3.8-1.6,5.7H453.3z"/>
			<path class="st4" d="M492,258.1h-6.3v-13.6H477v13.6h-6.1v-30.6h6.1v11.9h8.8v-11.9h6.3V258.1z"/>
			<path class="st4" d="M520.8,258.1H503v-30.6h17.4l-0.8,5h-10.3v7.1h8.6v5h-8.6v8.2h11.5V258.1z"/>
			<path class="st4" d="M552.6,258.1h-6.5l-2.2-7.3h-8.9l-2.2,7.3h-6.4l10-30.7h6.6L552.6,258.1z M542.4,245.8
				c-0.4-1.2-0.9-3.2-1.7-6.2c-0.1-0.3-0.5-2.1-1.2-5.4l-1.5,5.9c-0.5,1.9-1,3.8-1.6,5.7H542.4z"/>
			<path class="st4" d="M582.1,243.1c0,3.7-0.8,6.9-2.5,9.6c-1.9,3.2-4.6,4.9-8,5.2c-1.2,0.1-2.7,0.2-4.4,0.2h-7.4v-30.4h6.3
				c2.1,0,3.8,0.1,5.3,0.2c2.6,0.2,4.8,1.2,6.6,3C580.7,233.6,582.1,237.7,582.1,243.1z M575.2,243.7c0-3.2-0.3-5.6-0.9-7.3
				c-1-2.6-2.8-3.9-5.4-3.9H566v20.5h3.3C573.2,253.1,575.2,250,575.2,243.7z"/>
		</g>
	</g>
</g>
<g id="Layer_2">
</g>
<g id="white_shirt">
</g>
<g id="tie">
</g>
<g id="arms">
</g>
<g id="suit_1">
</g>
</svg>
