<?xml version="1.0" encoding="utf-8"?>
<!-- Generator: Adobe Illustrator 19.0.1, SVG Export Plug-In . SVG Version: 6.00 Build 0)  -->
<svg version="1.1" xmlns="http://www.w3.org/2000/svg" xmlns:xlink="http://www.w3.org/1999/xlink" x="0px" y="0px"
	 viewBox="0 0 1386.3 582.5" style="enable-background:new 0 0 1386.3 582.5;" xml:space="preserve">
<style type="text/css">
	.st0{opacity:0.55;fill:#161926;}
	.st1{fill:#273058;}
	.st2{fill:#313E7D;}
	.st3{fill:#F1D232;}
	.st4{fill:#FFFFFF;}
	.st5{fill:#761F26;}
	.st6{fill:#F3D332;}
	.st7{fill:#EDBA31;}
	.st8{fill:#EBB932;}
	.st9{fill:#F3D332;stroke:#FFFFFF;stroke-width:7;stroke-linecap:round;stroke-linejoin:round;stroke-miterlimit:10;}
	.st10{fill:#F3D332;stroke:#FFFFFF;stroke-width:5;stroke-linecap:round;stroke-linejoin:round;stroke-miterlimit:10;}
	.st11{fill:none;stroke:#EBB932;stroke-width:9;stroke-linecap:round;stroke-miterlimit:10;}
	.st12{fill:none;stroke:#FFFFFF;stroke-width:9;stroke-linecap:round;stroke-miterlimit:10;}
	.st13{fill:#F3D332;stroke:#FFFFFF;stroke-width:7;stroke-miterlimit:10;}
	.st14{fill:#F0F1F2;}
	.st15{fill:none;stroke:#9E9E9E;stroke-miterlimit:10;}
	.st16{fill:#9C252A;}
	.st17{fill:#D3AA93;}
	.st18{fill:none;stroke:#D48336;stroke-linecap:round;stroke-linejoin:round;stroke-miterlimit:10;}
	.st19{fill:#1D1E1F;}
	.st20{fill:none;stroke:#272E3E;stroke-miterlimit:10;}
	.st21{fill:#9E9E9E;}
</style>
<g id="Layer_1">
	<g>
		<polygon class="st14" points="607,30.2 624.6,54.2 639,73.8 653.3,86.5 666.7,92.5 675.3,92.5 702.6,92.5 719.6,90.8 737.3,83.5 
			752.6,73.2 764.3,58.2 776.6,34.8 780.4,22.5 790.6,24.8 827,300.1 804.3,578.2 592.6,582.5 585.6,513.5 581.6,242.2 585.3,81.2 
					"/>
		<polyline class="st15" points="599.1,104.1 613.3,131.5 625.3,146.5 631.8,140.4 655.3,121.1 685.2,92.5 		"/>
		<polyline class="st15" points="796.7,104.1 782.4,131.5 770.5,146.5 763.9,140.4 740.4,121.1 710.9,91.7 		"/>
		<polygon class="st16" points="663.8,113 682.3,139.5 708.6,139.5 732.3,113 719.6,90.8 681.6,92.5 		"/>
		<polygon class="st16" points="682.3,139.5 660.6,170.2 645.1,217.2 628.6,289.7 613.6,385.2 671.2,577.6 695.1,575.2 698.6,525.2 
			714,385.7 721.1,318.7 721.1,257.2 717.7,213.2 717.7,182.2 710.9,144.7 708.6,139.5 		"/>
		<path class="st17" d="M1287.5,189.2l9.1-19l1.8-5.7l10.6-12.1c0,0,13.4-11.7,17-15.9s16.3-20.9,16.3-20.9l16.5-20.1l4.8-5.4
			l2.6-5.7c0,0,3.1-5.8,4.6-8.9c1.5-3.2,2.2-11.2,2.2-11.2l1.3-8.5c0,0,0.8-2.8,1.4-7.3s-5.2-3.6-5.2-3.6l2.5-2.4l2-3.4l2.8-5.7
			l2.2-4.5c0,0,2-4.2,1.5-8.2c-0.6-5.5-5.3-4.1-5.3-4.1l2.6-2.5l2.6-2.9l3.6-3.6c0,0,1.8-2.1,0.6-3.8c-5.2-6.8-13.9-2.3-13.9-2.3
			L1368,4l-4.7,5.3c0,0-1.7-3-3.7-3c-2.8,0-5.8,0.2-9.1,1.6s-7,3.5-7,3.5l-5.7,4l-9.8,10.7l-6.7,6.7l-9.6,11.9l-8.2,12.4l-5.2,6.7
			l-7.5,6l-7.3,6.6l-6.6,5.7l-3.8,0.6l-7.7,1.1l-1.4-1.8v-3.6l1.1-5.4l1.5-4.5l-0.8-7.7c0,0-0.5-6-1.8-7.6c-1.5-1.9-6.7-5.5-9.2-6.2
			s-6.4-1.8-6.4-1.8l-4.6,0.7l-3.6,2.1v5.9c0,0,2,15,1,17.7c-1,2.7-3.5,9.6-3.5,9.6s-3.3,4.9-3.6,7.3c-0.4,2.4-1.5,9.8-1.5,9.8v9.8
			l-0.7,15.5l1.4,8.9l1.7,6.1l-3.1,2.8v7l4,14.6l31.4,21.9L1287.5,189.2z"/>
		<polyline class="st18" points="1363.3,9.3 1346.3,28.9 1318.6,67.7 		"/>
		<polyline class="st18" points="1376.4,16.7 1371.8,18.8 1364.8,25 1358.5,35.5 1333.1,72.7 		"/>
		<path class="st18" d="M1370.7,44.8c0,0-4.3,0.6-7.4,3.6c-3.1,3-5.6,11.3-5.6,11.3l-2.9,8l-13.8,20.5"/>
		<path class="st17" d="M98.8,189.2l-9.1-19l-1.8-5.7l-10.6-12.1c0,0-13.4-11.7-17-15.9c-3.6-4.2-16.3-20.9-16.3-20.9L27.4,95.5
			L22.6,90L20,84.3c0,0-3.1-5.8-4.6-8.9s-2.2-11.2-2.2-11.2l-1.3-8.5c0,0-0.8-2.8-1.4-7.3s5.2-3.6,5.2-3.6l-2.5-2.4l-2-3.4l-2.8-5.7
			l-2.2-4.5c0,0-2-4.2-1.5-8.2c0.6-5.5,5.3-4.1,5.3-4.1l-2.6-2.5l-2.6-2.9L1,7.6c0,0-1.8-2.1-0.6-3.8c5.2-6.8,13.9-2.3,13.9-2.3
			L18.3,4L23,9.3c0,0,1.7-3,3.7-3c2.8,0,5.8,0.2,9.1,1.6s7,3.5,7,3.5l5.7,4l9.8,10.7l6.7,6.7l9.6,11.9l8.2,12.4l5.2,6.7l7.5,6
			l7.3,6.6l6.6,5.7l3.8,0.6l7.7,1.1l1.4-1.8v-3.6l-1.1-5.4l-1.5-4.5l0.8-7.7c0,0,0.5-6,1.8-7.6c1.5-1.9,6.7-5.5,9.2-6.2
			s6.4-1.8,6.4-1.8l4.6,0.7l3.6,2.1v5.9c0,0-2,15-1,17.7c1,2.7,3.5,9.6,3.5,9.6s3.3,4.9,3.6,7.3c0.4,2.4,1.5,9.8,1.5,9.8v9.8
			l0.7,15.5l-1.4,8.9l-1.7,6.1l3.1,2.8v7l-4,14.6L119,184.7L98.8,189.2z"/>
		<polyline class="st18" points="23,9.3 40,28.9 67.7,67.7 		"/>
		<polyline class="st18" points="9.9,16.7 14.6,18.8 21.5,25 27.8,35.5 53.2,72.7 		"/>
		<path class="st18" d="M15.6,44.8c0,0,4.3,0.6,7.4,3.6c3.1,3,5.6,11.3,5.6,11.3l2.9,8l13.8,20.5"/>
		<polygon class="st14" points="1283,266.5 1292,250.7 1313,214.5 1321.3,205.2 1318.6,202.2 1312.8,195.8 1302.1,185.8 
			1303.6,181.5 1302.1,174.8 1298,165.5 1289.3,186.2 1281,182.5 1262.3,174.5 1245.3,164.2 1243.9,163.2 1235.2,152.8 
			1232.2,144.5 1232.2,140.8 1235.6,135.8 1234.6,133.5 1232.2,135.2 1228.6,142.2 1221.2,156.8 1218.9,166.2 1204.6,179.8 
			1227.3,242.2 		"/>
		<polygon class="st19" points="1006.9,69.2 1009,76.5 1017,83.8 1024.6,99.2 1032.6,120.5 1034,140.2 1040,140.2 1043.3,143.5 
			1043.3,149.8 1040.3,158.2 1048.3,169.8 1062.3,192.5 1069.6,199.5 1081,218.2 1082.6,222.2 1087.6,224.5 1096,235.2 
			1100.6,245.5 1105.3,245.5 1109,248.8 1112.6,257.5 1120,263.8 1129.6,273.5 1135.6,267.8 1140.3,261.5 1147.6,253.8 
			1164.7,231.8 1177.2,215.1 1197.9,188.2 1215.9,167.2 1221.2,156.8 1220.6,161.2 1218.9,166.2 1218.2,174.8 1218.9,182.5 
			1222.6,188.2 1226.6,195.9 1236.3,206.5 1248.6,217.5 1258.3,227.5 1271.6,243.2 1277.3,248.8 1287.6,254.2 1290.6,247.8 
			1301,231.2 1307,222.2 1313,214.5 1316.6,221.5 1320,226.5 1325.6,232.8 1329.6,236.8 1329.6,238.8 1325,244.5 1321.3,250.2 
			1316,258.5 1305.3,273.5 1289.6,297.8 1280.3,312.5 1269.6,326.5 1251.6,354.2 1245,366.5 1211,409.8 1186.3,437.5 1177,447.2 
			1163.6,457.5 1148.6,465.8 1135.3,470.2 1125.3,470.2 1110,467.2 1089,459.5 1056,448.2 1029,436.2 1015,427.5 1006.9,419.8 
			997,412.5 984,387.5 970.6,199.5 980.6,62.8 		"/>
		<polyline class="st20" points="1129.6,273.5 1116.6,286.2 1103.1,312.2 1093.6,345.2 1093.6,393.2 		"/>
		<polyline class="st20" points="1307,222.2 1315.6,234.2 1318.6,244.7 1318.6,250.7 		"/>
		<polyline class="st20" points="1026.6,381.7 1030.6,375.7 1037.1,371.7 1048.1,364.2 1062.1,352.7 1074.1,344.2 1084.6,336.7 
			1090.1,327.7 1093.6,323.2 1100.9,319.9 		"/>
		<polyline class="st20" points="1006.9,73.8 1004,92.5 1000.5,119.1 997.6,149.7 997.6,174.2 997.6,205.2 999.6,243.2 
			1006.9,281.8 		"/>
		<polyline class="st15" points="1282.2,251.4 1286,244.5 1307,211.8 1312.8,200.2 1289.3,186.2 		"/>
		
			<ellipse transform="matrix(0.9092 0.4164 -0.4164 0.9092 212.2737 -509.7202)" class="st21" cx="1274.8" cy="231.8" rx="3.8" ry="7.7"/>
		<polygon class="st14" points="103.3,266.5 94.3,250.7 73.3,214.5 65,205.2 67.7,202.2 73.5,195.8 84.2,185.8 82.7,181.5 
			84.2,174.8 88.3,165.5 97,186.2 105.3,182.5 124,174.5 141,164.2 142.4,163.2 151.1,152.8 154.1,144.5 154.1,140.8 150.8,135.8 
			151.8,133.5 154.1,135.2 157.8,142.2 165.1,156.8 167.4,166.2 181.7,179.8 159,242.2 		"/>
		<polygon class="st19" points="379.4,69.2 377.3,76.5 369.3,83.8 361.7,99.2 353.7,120.5 352.3,140.2 346.3,140.2 343,143.5 
			343,149.8 346,158.2 338,169.8 324,192.5 316.7,199.5 305.3,218.2 303.7,222.2 298.7,224.5 290.3,235.2 285.7,245.5 281,245.5 
			277.3,248.8 273.7,257.5 266.3,263.8 256.7,273.5 250.7,267.8 246,261.5 238.7,253.8 221.6,231.8 209.1,215.1 188.4,188.2 
			170.4,167.2 165.1,156.8 165.8,161.2 167.4,166.2 168.1,174.8 167.4,182.5 163.8,188.2 159.7,195.9 150,206.5 137.7,217.5 
			128,227.5 114.7,243.2 109,248.8 98.7,254.2 95.7,247.8 85.3,231.2 79.3,222.2 73.3,214.5 69.7,221.5 66.3,226.5 60.7,232.8 
			56.7,236.8 56.7,238.8 61.3,244.5 65,250.2 70.3,258.5 81,273.5 96.7,297.8 106,312.5 116.7,326.5 134.7,354.2 141.3,366.5 
			175.3,409.8 200,437.5 209.3,447.2 222.7,457.5 237.7,465.8 251,470.2 261,470.2 276.3,467.2 297.3,459.5 330.3,448.2 
			357.3,436.2 371.3,427.5 379.4,419.8 389.3,412.5 402.3,387.5 415.7,199.5 405.7,62.8 		"/>
		<polyline class="st20" points="256.7,273.5 269.7,286.2 283.2,312.2 292.7,345.2 292.7,393.2 		"/>
		<polyline class="st20" points="79.3,222.2 70.7,234.2 67.7,244.7 67.7,250.7 		"/>
		<polyline class="st20" points="359.7,381.7 355.7,375.7 349.2,371.7 338.2,364.2 324.2,352.7 312.2,344.2 301.7,336.7 
			296.2,327.7 292.7,323.2 285.4,319.9 		"/>
		<polyline class="st20" points="379.4,73.8 382.3,92.5 385.8,119.1 388.7,149.7 388.7,174.2 388.7,205.2 386.7,243.2 379.4,281.8 
					"/>
		<polyline class="st15" points="104.1,251.4 100.3,244.5 79.3,211.8 73.5,200.2 97,186.2 		"/>
		
			<ellipse transform="matrix(-0.9092 0.4164 -0.4164 -0.9092 309.4279 396.1764)" class="st21" cx="111.5" cy="231.8" rx="3.8" ry="7.7"/>
		<polygon class="st19" points="608.5,11.2 559.9,21.2 547.9,21.2 534.9,26.2 524.9,26.2 497.9,35.2 485.9,35.2 457.3,37.2 
			444.9,38.8 389.9,55.5 385.6,57.8 381.6,61.8 381.6,73.8 386.6,106.2 390.6,144.2 391.3,202.2 389.3,236.8 381.6,281.8 
			386.2,302.5 389.2,331.1 396.9,375.6 401.5,401.7 404.6,441.7 409.2,486.2 413.8,535.4 415.4,572.2 670.8,572.6 606,340.1 
			597.9,200.4 601.5,41.8 608.5,27.2 		"/>
		<polyline class="st20" points="590.1,15 506.3,90.5 526.8,120.7 487.3,127.9 489.4,157.7 496.9,254.7 517.3,340.1 539.4,390.4 
			574.9,478.6 606,528.9 638.7,572.2 		"/>
		<polygon class="st19" points="779.9,11.2 828.5,21.2 840.5,21.2 853.5,26.2 863.5,26.2 890.5,35.2 902.5,35.2 931.2,37.2 
			943.5,38.8 998.5,55.5 1002.9,57.8 1006.9,61.8 1006.9,73.8 1001.9,106.2 997.9,144.2 997.2,202.2 999.2,236.8 1006.9,281.8 
			1002.3,302.5 999.2,331.1 991.5,375.6 986.9,401.7 983.9,441.7 979.3,486.2 974.6,535.4 973.1,572.2 717.7,572.6 782.5,340.1 
			790.5,200.4 786.9,41.8 779.9,27.2 		"/>
		<polyline class="st20" points="798.4,15 882.2,90.5 861.7,120.7 901.2,127.9 899,157.7 891.5,254.7 871.1,340.1 849.1,390.4 
			813.5,478.6 782.5,528.9 749.8,572.2 		"/>
	</g>
</g>
<g id="Layer_2">
</g>
<g id="white_shirt">
</g>
<g id="tie">
</g>
<g id="arms">
</g>
<g id="suit_1">
</g>
</svg>
